<svg viewBox="0 0 110 110" xmlns="http://www.w3.org/2000/svg">
  <g transform="translate(55 55)">
    <circle r="54" fill="none" stroke="#e8614a" opacity=".1"/>
    <path d="M43.8 3.8A44 44 0 0 1 38.1 22" fill="none" stroke="#f4a58a" stroke-width="7.5" stroke-linecap="round"/>
    <path d="M38.1 22a44 44 0 1 1-19.5-61" fill="none" stroke="#e8614a" stroke-width="7.5" stroke-linecap="round"/>
    <circle r="3.5" fill="#e8614a" opacity=".26"/>
    <circle r="1.8" fill="#e8614a"/>
    <path stroke="#e8614a" stroke-width="3" stroke-linecap="round" d="M0 0v-26"/>
    <circle cy="-26" r="4.5" fill="#e8614a" opacity=".78"/>
    <path stroke="#e8614a" stroke-width="3" stroke-linecap="round" d="m0 0 13-22"/>
    <circle cx="13" cy="-22" r="3.5" fill="#e8614a" opacity=".72"/>
    <path stroke="#e8614a" stroke-width="3" stroke-linecap="round" d="m0 0 23-9"/>
    <circle cx="23" cy="-9" r="4" fill="#e8614a" opacity=".68"/>
    <path stroke="#e8614a" stroke-width="2.5" stroke-linecap="round" opacity=".7" d="m0 0 21 11"/>
    <circle cx="21" cy="11" r="3" fill="#e8614a" opacity=".55"/>
    <path stroke="#e8614a" stroke-width="2.5" stroke-linecap="round" opacity=".52" d="m0 0 9 23"/>
    <circle cx="9" cy="23" r="3.5" fill="#e8614a" opacity=".45"/>
    <path stroke="#e8614a" stroke-width="2.5" stroke-linecap="round" opacity=".5" d="m0 0-11 22"/>
    <circle cx="-11" cy="22" r="3" fill="#e8614a" opacity=".42"/>
    <path stroke="#e8614a" stroke-width="3" stroke-linecap="round" d="m0 0-26 3"/>
    <circle cx="-26" cy="3" r="4" fill="#e8614a" opacity=".7"/>
    <path stroke="#e8614a" stroke-width="3" stroke-linecap="round" d="m0 0-20-17"/>
    <circle cx="-20" cy="-17" r="4.5" fill="#e8614a" opacity=".8"/>
    <path stroke="#e8614a" stroke-width="2" stroke-linecap="round" opacity=".62" d="m0 0-8-23"/>
    <circle cx="-8" cy="-23" r="3" fill="#e8614a" opacity=".58"/>
  </g>
</svg>
